PLOT

Three young children accidentally release a horde of nasty, pint-sized demons from a hole in a
suburban backyard. What follows is a classic battle between good and evil as the three kids struggle to overcome a
nightmarish hell that is literally taking over the Earth.
 
http://www.imdb.com/title/tt0093075/

Encoded By .......: BigPerm
Runtime ..........: 1h 25mn
File Size ........: 796 MB
Resolution .......: 656 x 352
IMDb URL .........: http://www.imdb.com/title/tt0093075/
Source ...........: DVD
Genre ............: Fantasy,Horror
Language .........: English
Subtitles ........: None
Video
ID : 0
Format : MPEG-4 Visual
Format profile : Advanced Simple@L5
Format settings, BVOP : Yes
Format settings, QPel : No
Format settings, GMC : No warppoints
Format settings, Matrix : Default (H.263)
Muxing mode : Packed bitstream
Codec ID : XVID
Codec ID/Hint : XviD
Duration : 1h 25mn
Bit rate : 837 Kbps
Width : 656 pixels
Height : 352 pixels
Display aspect ratio : 1.864
Frame rate : 23.976 fps
Color space : YUV
Chroma subsampling : 4:2:0
Bit depth : 8 bits
Scan type : Progressive
Compression mode : Lossy
Bits/(Pixel*Frame) : 0.151
Stream size : 515 MiB (65%)
Writing library : XviD 1.2.1 (UTC 2008-12-04)
Audio
ID : 1
Format : AC-3
Format/Info : Audio Coding 3
Mode extension : CM (complete main)
Codec ID : 2000
Duration : 1h 25mn
Bit rate mode : Constant
Bit rate : 448 Kbps
Channel(s) : 2 channels
Channel positions : Front: L R
Sampling rate : 48.0 KHz
Bit depth : 16 bits
Compression mode : Lossy
Stream size : 275 MiB (35%)
Alignment : Split accross interleaves
Interleave, duration : 42 ms (1.00 video frame)
Interleave, preload duration : 500 ms